Jump_normalized_precision_landing07_filtered_grf
version=1
nRows=28
nColumns=37
inDegrees=yes
endheader
time		1_ground_force_vx		1_ground_force_vy		1_ground_force_vz		1_ground_force_px		1_ground_force_py		1_ground_force_pz		1_ground_torque_x		1_ground_torque_y		1_ground_torque_z		2_ground_force_vx		2_ground_force_vy		2_ground_force_vz		2_ground_force_px		2_ground_force_py		2_ground_force_pz		2_ground_torque_x		2_ground_torque_y		2_ground_torque_z		3_ground_force_vx		3_ground_force_vy		3_ground_force_vz		3_ground_force_px		3_ground_force_py		3_ground_force_pz		3_ground_torque_x		3_ground_torque_y		3_ground_torque_z		4_ground_force_vx		4_ground_force_vy		4_ground_force_vz		4_ground_force_px		4_ground_force_py		4_ground_force_pz		4_ground_torque_x		4_ground_torque_y		4_ground_torque_z		
0.375333		-0.000000		0.000000		0.000000		0.096796		0.000000		0.248473		0.000000		0.000000		-0.000000		-0.000000		-0.000000		-0.000000		-0.189952		0.000000		0.240771		-0.000000		0.000000		-0.000000		-8.333933		386.802682		-89.822768		0.381156		1.274615		1.889829		0.556981		-25.850999		6.003069		37.886177		365.468065		-84.300117		-0.351397		1.267643		1.877186		2.315839		22.339716		-5.152963		
0.378263		-0.000000		0.000000		0.000000		0.096796		0.000000		0.248473		0.000000		0.000000		-0.000000		0.000000		0.000000		-0.000000		-0.189952		0.000000		0.240771		0.000000		-0.000000		0.000000		-6.679372		375.175679		-93.069095		0.381124		1.274661		1.889839		0.443813		-24.928414		6.183923		34.746841		355.649649		-87.275987		-0.351366		1.267673		1.877205		2.131293		21.814782		-5.353328		
0.381192		-0.000000		0.000000		0.000000		0.096796		0.000000		0.248473		0.000000		0.000000		-0.000000		0.000000		0.000000		0.000000		-0.189952		0.000000		0.240771		0.000000		-0.000000		0.000000		-5.048961		362.340132		-96.260718		0.381096		1.274716		1.889852		0.333047		-23.900838		6.349567		31.544347		344.799970		-89.918654		-0.351336		1.267707		1.877219		1.940096		21.206525		-5.530348		
0.384121		0.000000		0.000000		0.000000		0.096796		0.000000		0.248473		0.000000		0.000000		-0.000000		0.000000		0.000000		0.000000		-0.189952		0.000000		0.240771		0.000000		-0.000000		0.000000		-3.426911		348.165054		-99.242818		0.381072		1.274779		1.889867		0.224106		-22.768055		6.489904		28.367654		332.769899		-92.160365		-0.351305		1.267744		1.877225		1.747608		20.500523		-5.677606		
0.387051		0.000000		-0.000000		-0.000000		0.096796		0.000000		0.248473		-0.000000		-0.000000		0.000000		0.000000		0.000000		0.000000		-0.189952		0.000000		0.240771		0.000000		-0.000000		0.000000		-1.815605		332.605132		-101.777542		0.381051		1.274845		1.889882		0.117567		-21.536747		6.590255		25.301727		319.426466		-93.943436		-0.351268		1.267781		1.877221		1.559362		19.686463		-5.789795		
0.389980		0.000000		-0.000000		-0.000000		0.096796		0.000000		0.248473		-0.000000		-0.000000		0.000000		0.000000		0.000000		0.000000		-0.189952		0.000000		0.240771		0.000000		-0.000000		0.000000		-0.232237		315.710722		-103.588371		0.381034		1.274911		1.889898		0.014874		-20.218977		6.634076		22.410895		304.678606		-95.209480		-0.351227		1.267817		1.877204		1.379927		18.760254		-5.862419		
0.392909		0.000000		-0.000000		-0.000000		0.096796		0.000000		0.248473		-0.000000		-0.000000		0.000000		-0.000000		0.000000		0.000000		-0.189952		0.000000		0.240771		0.000000		-0.000000		0.000000		1.302584		297.617103		-104.410083		0.381020		1.274970		1.889907		-0.082408		-18.830171		6.605980		19.726261		288.498113		-95.892848		-0.351180		1.267851		1.877170		1.211925		17.724481		-5.891372		
0.395838		0.000000		-0.000000		-0.000000		0.096796		0.000000		0.248473		-0.000000		-0.000000		0.000000		-0.000000		-0.000000		0.000000		-0.189952		0.000000		0.240771		-0.000000		0.000000		-0.000000		2.768081		278.510138		-104.052415		0.381009		1.275025		1.889906		-0.172800		-17.387159		6.495871		17.247312		270.941404		-95.905423		-0.351129		1.267881		1.877120		1.055952		16.588123		-5.871706		
0.398768		0.000000		-0.000000		-0.000000		0.096796		0.000000		0.248473		-0.000000		-0.000000		0.000000		-0.000000		-0.000000		-0.000000		-0.189952		0.000000		0.240771		-0.000000		0.000000		-0.000000		4.141789		258.581175		-102.400738		0.380998		1.275075		1.889888		1.901364		-31.712822		-33.526065		14.956341		252.136586		-95.131842		-0.351079		1.267909		1.877051		0.911396		15.364433		-5.797029		
0.401697		-0.000000		0.000000		-0.000000		0.096796		0.000000		0.248473		-0.000000		-0.000000		-0.000000		-0.000000		-0.000000		-0.000000		-0.189952		0.000000		0.240771		-0.000000		0.000000		-0.000000		5.394277		238.009342		-99.412521		0.380985		1.275126		1.889852		1.759348		-29.760768		-30.626720		12.834045		232.277927		-93.434422		-0.351033		1.267934		1.876967		0.777451		14.070709		-5.659964		
0.404626		-0.000000		0.000000		0.000000		0.096796		0.000000		0.248473		0.000000		0.000000		-0.000000		-0.000000		-0.000000		-0.000000		-0.189952		0.000000		0.240771		-0.000000		0.000000		-0.000000		6.490694		216.962675		-95.102080		0.380969		1.275182		1.889795		1.625523		-27.594795		-27.710242		10.867457		211.609551		-90.669407		-0.350997		1.267958		1.876867		0.653653		12.727787		-5.453524		
0.407556		-0.000000		0.000000		0.000000		0.096796		0.000000		0.248473		0.000000		0.000000		-0.000000		-0.000000		-0.000000		-0.000000		-0.189952		0.000000		0.240771		-0.000000		0.000000		-0.000000		7.399352		195.617274		-89.529338		0.380949		1.275247		1.889717		1.499012		-25.246952		-24.802493		9.047373		190.406260		-86.717652		-0.350973		1.267982		1.876757		0.539731		11.358879		-5.173222		
0.410485		-0.000000		0.000000		0.000000		0.096796		0.000000		0.248473		0.000000		0.000000		-0.000000		0.000000		0.000000		-0.000000		-0.189952		0.000000		0.240771		0.000000		-0.000000		0.000000		8.100890		174.182897		-82.801536		0.380922		1.275324		1.889610		1.379951		-22.757557		-21.931773		7.363989		168.959285		-81.517817		-0.350963		1.268009		1.876638		0.435325		9.988092		-4.818954		
0.413414		-0.000000		0.000000		0.000000		0.096796		0.000000		0.248473		0.000000		0.000000		-0.000000		0.000000		0.000000		0.000000		-0.189952		0.000000		0.240771		0.000000		-0.000000		0.000000		8.600666		152.928939		-75.075342		0.380893		1.275401		1.889472		1.270441		-20.173608		-19.132084		5.802951		147.565882		-75.111775		-0.350963		1.268040		1.876513		0.339724		8.638962		-4.397266		
0.416343		-0.000000		0.000000		0.000000		0.096796		0.000000		0.248473		0.000000		0.000000		-0.000000		0.000000		0.000000		0.000000		-0.189952		0.000000		0.240771		0.000000		-0.000000		0.000000		8.918307		132.170612		-66.601235		0.380865		1.275470		1.889297		1.170586		-17.552087		-16.439171		4.353745		126.537162		-67.655929		-0.350970		1.268076		1.876383		0.252338		7.333875		-3.921209		
0.419273		0.000000		-0.000000		-0.000000		0.096796		0.000000		0.248473		-0.000000		-0.000000		0.000000		0.000000		0.000000		0.000000		-0.189952		0.000000		0.240771		0.000000		-0.000000		0.000000		9.084344		112.246957		-57.711592		0.380846		1.275520		1.889083		1.078622		-14.957504		-13.888383		3.015544		106.204774		-59.406140		-0.350980		1.268116		1.876246		1.163711		14.629758		11.901661		
0.422202		0.000000		-0.000000		-0.000000		0.096796		0.000000		0.248473		-0.000000		-0.000000		0.000000		0.000000		0.000000		0.000000		-0.189952		0.000000		0.240771		0.000000		-0.000000		0.000000		9.131417		93.481941		-48.800865		0.380841		1.275541		1.888827		-0.484063		-4.955710		2.587049		1.798114		86.922093		-50.697016		-0.350992		1.268158		1.876098		1.011340		12.238791		9.667349		
0.425131		0.000000		-0.000000		-0.000000		0.096796		0.000000		0.248473		-0.000000		-0.000000		0.000000		-0.000000		0.000000		0.000000		-0.189952		0.000000		0.240771		0.000000		-0.000000		-0.000000		9.081097		76.148652		-40.272406		0.380852		1.275531		1.888533		-0.468536		-3.929007		2.077912		0.718609		69.051743		-41.905355		-0.351006		1.268201		1.875934		0.866915		9.942218		7.632668		
0.428061		0.000000		-0.000000		-0.000000		0.096796		0.000000		0.248473		-0.000000		-0.000000		0.000000		-0.000000		-0.000000		-0.000000		-0.189952		0.000000		0.240771		-0.000000		0.000000		-0.000000		8.929665		60.447638		-32.471761		0.380879		1.275495		1.888207		-0.444340		-3.007965		1.615839		-0.202130		52.939728		-33.408671		-0.351025		1.268243		1.875750		0.729718		7.809934		5.825309		
0.430990		0.000000		-0.000000		-0.000000		0.096796		0.000000		0.248473		-0.000000		-0.000000		0.000000		-0.000000		-0.000000		-0.000000		-0.189952		0.000000		0.240771		-0.000000		0.000000		-0.000000		8.645805		46.506900		-25.622403		0.380913		1.275450		1.887865		-0.409286		-2.201618		1.212953		-0.942221		38.882352		-25.544506		-0.351054		1.268284		1.875546		0.598902		5.901154		4.266851		
0.433919		-0.000000		-0.000000		-0.000000		0.096796		0.000000		0.248473		-0.000000		-0.000000		0.000000		-0.000000		-0.000000		-0.000000		-0.189952		0.000000		0.240771		-0.000000		0.000000		-0.000000		8.189598		34.403917		-19.780313		0.380946		1.275411		1.887516		-0.362416		-1.522605		0.875398		-1.484527		27.088912		-18.590097		-0.351092		1.268321		1.875325		0.474647		4.260004		2.969276		
0.436848		-0.000000		0.000000		0.000000		0.096796		0.000000		0.248473		0.000000		0.000000		-0.000000		-0.000000		-0.000000		-0.000000		-0.189952		0.000000		0.240771		-0.000000		0.000000		-0.000000		7.530833		24.164628		-14.840522		0.380972		1.275393		1.887163		-0.305970		-0.981945		0.603027		-1.821968		17.630956		-12.733739		-0.351135		1.268354		1.875090		0.358335		2.909194		1.930865		
0.439778		-0.000000		0.000000		0.000000		0.096796		0.000000		0.248473		0.000000		0.000000		-0.000000		-0.000000		-0.000000		-0.000000		-0.189952		0.000000		0.240771		-0.000000		0.000000		-0.000000		6.661223		15.789293		-10.619812		0.380988		1.275406		1.886811		-0.245553		-0.582177		0.391540		-1.962105		10.453968		-8.074268		-0.351176		1.268383		1.874848		0.252613		1.851732		1.139064		
0.442707		-0.000000		0.000000		0.000000		0.096796		0.000000		0.248473		0.000000		0.000000		-0.000000		0.000000		0.000000		-0.000000		-0.189952		0.000000		0.240771		0.000000		-0.000000		0.000000		5.604777		9.241733		-6.960525		0.380995		1.275451		1.886464		-0.187469		-0.309203		0.232861		-1.934918		5.378455		-4.613428		-0.351207		1.268404		1.874604		0.161010		1.071529		0.571409		
0.445636		-0.000000		0.000000		0.000000		0.096796		0.000000		0.248473		0.000000		0.000000		-0.000000		0.000000		0.000000		0.000000		-0.189952		0.000000		0.240771		0.000000		-0.000000		0.000000		4.424677		4.437753		-3.820850		0.380996		1.275522		1.886129		0.109818		-0.824776		-0.411516		-1.793009		2.122330		-2.257329		-0.351220		1.268413		1.874363		0.087118		0.536720		0.197944		
0.448566		0.000000		0.000000		0.000000		0.096796		0.000000		0.248473		0.000000		0.000000		-0.000000		0.000000		0.000000		0.000000		-0.189952		0.000000		0.240771		0.000000		-0.000000		0.000000		3.221612		1.230541		-1.291870		0.380996		1.275604		1.885819		0.051264		-0.380096		-0.069270		-1.599306		0.331472		-0.830911		-0.351213		1.268410		1.874128		0.033403		0.204380		-0.016656		
0.451495		0.000000		-0.000000		-0.000000		0.096796		0.000000		0.248473		-0.000000		-0.000000		0.000000		0.000000		0.000000		0.000000		-0.189952		0.000000		0.240771		0.000000		-0.000000		0.000000		2.117220		-0.600050		0.482790		0.380996		1.275685		1.885544		0.019042		-0.089567		0.105305		-1.408126		-0.384444		-0.106323		-0.351186		1.268391		1.873897		0.000136		0.026112		-0.111152		
0.454424		0.000000		-0.000000		-0.000000		0.096796		0.000000		0.248473		-0.000000		-0.000000		0.000000		0.000000		0.000000		0.000000		-0.189952		0.000000		0.240771		0.000000		-0.000000		0.000000		1.222500		-1.345732		1.429278		0.380997		1.275754		1.885314		0.007520		0.070132		0.162355		-1.253157		-0.412444		0.159682		-0.351145		1.268357		1.873671		-0.014968		-0.046266		-0.125089		
